# xmcd
#
# Track frame offsets:
#	182
#	10655
#	18535
#	27825
#	37207
#	45095
#	54852
#	62827
#	73782
#	82042
#	90437
#	101857
#	110947
#	123397
#	135412
#	145912
#	153645
#	163777
#
# Disc length: 2324 seconds
#
# Revision: 0
# Processed by: cddbd v1.5.2PL0 Copyright (c) Steve Scherf et al.
# Submitted via: dBpowerAMP V4.0
#
DISCID=f4091212
DTITLE=Jim Reeves - He'll Have to Go
DYEAR=1900
DGENRE=Country
TTITLE0=He'll Have to Go
TTITLE1=Bimbo
TTITLE2=I'd Like to be
TTITLE3=Billy Bayou
TTITLE4=In a Mansion Stands My Love
TTITLE5=I'm Getting Better
TTITLE6=I Know One
TTITLE7=I Missed You
TTITLE8=Yonder Comes a Sucker
TTITLE9=Waiting for a Train
TTITLE10=Am I Losing You
TTITLE11=According to My Heart
TTITLE12=Four Walls
TTITLE13=Mexican Joe
TTITLE14=Anne Marie
TTITLE15=Blue Boy
TTITLE16=Softly and Tenderly
TTITLE17=Peace in the Valley
EXTD=Jim Reeves
EXTT0=
EXTT1=
EXTT2=
EXTT3=
EXTT4=
EXTT5=
EXTT6=
EXTT7=
EXTT8=
EXTT9=
EXTT10=
EXTT11=
EXTT12=
EXTT13=
EXTT14=
EXTT15=
EXTT16=
EXTT17=
PLAYORDER=
